HIERARCHY
ROOT Hips
{
	OFFSET 0.000000 0.000000 0.000000
	CHANNELS 6 Xposition Yposition Zposition Zrotation Yrotation Xrotation 
	JOINT LowerBack
	{
		OFFSET 0.000000 0.000000 0.000000
		CHANNELS 3 Zrotation Yrotation Xrotation
		JOINT Spine
		{
			OFFSET 0.028270 2.035590 -0.193380
			CHANNELS 3 Zrotation Yrotation Xrotation
			JOINT Spine1
			{
				OFFSET 0.056720 2.048850 -0.042750
				CHANNELS 3 Zrotation Yrotation Xrotation
				JOINT Neck
				{
					OFFSET 0.000000 0.000000 0.000000
					CHANNELS 3 Zrotation Yrotation Xrotation
					JOINT Neck1
					{
						OFFSET -0.054170 1.746240 0.172020
						CHANNELS 3 Zrotation Yrotation Xrotation
						JOINT Head
						{
							OFFSET 0.104070 1.761360 -0.123970
							CHANNELS 3 Zrotation Yrotation Xrotation
							End Site
							{
								OFFSET 0.000000 0.000000 0.000000
							}
						}
					}
				}
				JOINT LeftShoulder
				{
					OFFSET 0.000000 0.000000 0.000000
					CHANNELS 3 Zrotation Yrotation Xrotation
					JOINT LeftArm
					{
						OFFSET 3.362410 1.200890 -0.311210
						CHANNELS 3 Zrotation Yrotation Xrotation
						JOINT LeftForeArm
						{
							OFFSET 4.983000 -0.000000 -0.000000
							CHANNELS 3 Zrotation Yrotation Xrotation
							JOINT LeftHand
							{
								OFFSET 3.483560 -0.000000 -0.000000
								CHANNELS 3 Zrotation Yrotation Xrotation
								JOINT LeftFingerBase
								{
									OFFSET 0.000000 0.000000 0.000000
									CHANNELS 3 Zrotation Yrotation Xrotation
									JOINT LeftHandIndex1
									{
										OFFSET 0.715260 -0.000000 -0.000000
										CHANNELS 3 Zrotation Yrotation Xrotation
										End Site
										{
											OFFSET 0.000000 0.000000 0.000000
										}
									}
								}
								JOINT LThumb
								{
									OFFSET 0.000000 0.000000 0.000000
									CHANNELS 3 Zrotation Yrotation Xrotation
									End Site
									{
										OFFSET 0.000000 0.000000 0.000000
									}
								}
							}
						}
					}
				}
				JOINT RightShoulder
				{
					OFFSET 0.000000 0.000000 0.000000
					CHANNELS 3 Zrotation Yrotation Xrotation
					JOINT RightArm
					{
						OFFSET -3.136600 1.374050 -0.404650
						CHANNELS 3 Zrotation Yrotation Xrotation
						JOINT RightForeArm
						{
							OFFSET -5.241900 -0.000000 -0.000000
							CHANNELS 3 Zrotation Yrotation Xrotation
							JOINT RightHand
							{
								OFFSET -3.444170 -0.000000 -0.000000
								CHANNELS 3 Zrotation Yrotation Xrotation
								JOINT RightFingerBase
								{
									OFFSET 0.000000 0.000000 0.000000
									CHANNELS 3 Zrotation Yrotation Xrotation
									JOINT RightHandIndex1
									{
										OFFSET -0.622530 -0.000000 -0.000000
										CHANNELS 3 Zrotation Yrotation Xrotation
										End Site
										{
											OFFSET 0.000000 0.000000 0.000000
										}
									}
								}
								JOINT RThumb
								{
									OFFSET 0.000000 0.000000 0.000000
									CHANNELS 3 Zrotation Yrotation Xrotation
									End Site
									{
										OFFSET 0.000000 0.000000 0.000000
									}
								}
							}
						}
					}
				}
			}
		}
	}
}
}
MOTION
Frames: 6
Frame Time: 0.008333
0.838007 16.763962 0.504124 168.742925 -78.840558 -164.492353 -5.914503 3.717486 -4.188564 -1.612381 4.008179 -4.130094 -3.473609 3.829272 -1.203268 2.871605 -2.484253 -7.465479 -0.861223 -0.078422 0.130011 0.000000 0.000000 0.000000 -6.191159 20.655077 1.699640 -47.393757 38.969521 24.848901 -5.485985 -18.124832 -0.083147 -12.787283 16.031913 -1.810984 -0.150558 -0.185728 -0.000000 0.000000 0.000000 0.000000 0.000000 0.000000 0.000000 -2.932045 5.112928 -1.134157 27.179460 43.953351 12.673010 0.119848 78.762232 -0.033747 -2.880218 5.422643 -0.145496 -0.080402 -0.503154 0.000000 0.000000 0.000000 0.000000 0.000000 0.000000 0.000000 
0.626025 16.717132 0.494847 166.494405 -79.294780 -162.482154 -6.422599 3.560688 -3.931216 -1.726416 3.888107 -4.111776 -3.563426 3.712672 -1.283296 3.181324 -2.508553 -7.441670 -0.927812 -0.083626 0.131683 0.000000 0.000000 0.000000 -6.400954 19.956862 1.720521 -47.277629 38.419712 25.511746 -5.511204 -17.688007 -0.084030 -13.034912 16.041410 -1.846805 -0.154426 -0.181114 -0.000000 0.000000 0.000000 0.000000 0.000000 0.000000 0.000000 -2.378186 5.114265 -0.972653 27.751363 43.284233 12.797442 0.153593 78.955705 -0.032281 -2.739037 5.446228 -0.138850 -0.077953 -0.504384 0.000000 0.000000 0.000000 0.000000 0.000000 0.000000 0.000000 
0.418156 16.666706 0.486545 164.040598 -79.642716 -160.263678 -6.921469 3.397284 -3.639032 -1.838328 3.759940 -4.087902 -3.659410 3.589863 -1.365959 3.495338 -2.459137 -7.422596 -1.007611 -0.089689 0.130487 0.000000 0.000000 0.000000 -6.696685 19.310490 1.758526 -47.239656 37.636899 26.130535 -5.500818 -17.205210 -0.082549 -12.854966 15.863133 -1.799399 -0.157322 -0.175020 -0.000000 0.000000 0.000000 0.000000 0.000000 0.000000 0.000000 -1.789564 5.202671 -0.811036 28.478963 42.615162 12.983675 0.186514 79.093095 -0.030728 -2.578419 5.518928 -0.132197 -0.075674 -0.506198 0.000000 0.000000 0.000000 0.000000 0.000000 0.000000 0.000000 
0.215132 16.612670 0.479159 161.477780 -79.880852 -157.932862 -7.402943 3.227798 -3.309065 -1.945504 3.623987 -4.055235 -3.758405 3.461435 -1.443968 3.806007 -2.348467 -7.414918 -1.099565 -0.096399 0.124322 0.000000 0.000000 0.000000 -7.049043 18.736294 1.822706 -47.325522 36.569989 26.603563 -5.460450 -16.634970 -0.078768 -12.239310 15.542414 -1.675764 -0.159076 -0.167012 -0.000000 0.000000 0.000000 0.000000 0.000000 0.000000 0.000000 -1.176366 5.365851 -0.655758 29.357174 41.969211 13.215855 0.217073 79.150160 -0.029234 -2.420225 5.634595 -0.126337 -0.073332 -0.508545 0.000000 0.000000 0.000000 0.000000 0.000000 0.000000 0.000000 
0.017752 16.555311 0.472669 158.915996 -80.013449 -155.604044 -7.857301 3.053875 -2.939241 -2.045011 3.481700 -4.012175 -3.856739 3.328903 -1.515577 4.102612 -2.180290 -7.419272 -1.201990 -0.103590 0.112862 0.000000 0.000000 0.000000 -7.436085 18.236867 1.918538 -47.562713 35.188772 26.846533 -5.398187 -15.941155 -0.072894 -11.207862 15.105087 -1.487501 -0.159490 -0.156732 -0.000000 0.000000 0.000000 0.000000 0.000000 0.000000 0.000000 -0.558789 5.600513 -0.512649 30.404468 41.339810 13.479564 0.244382 79.110808 -0.027901 -2.281325 5.786743 -0.121966 -0.070698 -0.511307 0.000000 0.000000 0.000000 0.000000 0.000000 0.000000 0.000000 
-0.173899 16.495455 0.467014 156.436768 -80.053613 -153.356634 -8.280807 2.876226 -2.530987 -2.135697 3.333960 -3.957920 -3.952050 3.193034 -1.578298 4.380098 -1.967043 -7.435620 -1.314144 -0.111180 0.095998 0.000000 0.000000 0.000000 -7.835196 17.808585 2.047340 -47.961980 33.470964 26.801348 -5.322356 -15.094072 -0.065286 -9.805638 14.558186 -1.249814 -0.158281 -0.144001 -0.000000 0.000000 0.000000 0.000000 0.000000 0.000000 0.000000 0.056637 5.892555 -0.384845 31.625854 40.724539 13.768213 0.267871 78.957392 -0.026922 -2.191583 5.972279 -0.120685 -0.067245 -0.514380 0.000000 0.000000 0.000000 0.000000 0.000000 0.000000 0.000000 
